<?xml version="1.0" encoding="UTF-8"?>
<svg id="a" data-name="Ebene_1" xmlns="http://www.w3.org/2000/svg" viewBox="0 0 87.4478 72.7554">
  <defs>
    <style>
      .b {
        fill: #333;
      }
    </style>
  </defs>
  <g>
    <path class="b" d="M49.8856,61.819c-4.0233,2.1684-8.6269,3.399-13.5178,3.399-15.7582,0-28.5328-12.7746-28.5328-28.5328s12.7746-28.5328,28.5328-28.5328c4.8909,0,9.4944,1.2306,13.5177,3.399"/>
    <path d="M53.4278,68.3911c-16.6995,9.4384-39.3007,2.9928-48.616-13.7941C-5.0714,37.7815.7951,15.1949,17.6019,5.2897c10.7737-6.6419,25.0029-7.0813,36.2093-1.022l-7.8513,14.5675c-13.4682-7.4149-30.1146,2.4838-30.2546,17.8502-.1637,15.6359,16.8159,25.9013,30.6383,18.5613-.0001.0002,7.0842,13.1444,7.0842,13.1444h0Z"/>
  </g>
  <path d="M22.6338,41.8559v-15.6938h2.2319v15.5854c0,5.1475,2.6636,7.9912,7.2349,7.9912s7.2715-2.8438,7.2715-7.9912v-15.5854h2.2314v15.6938c0,6.2275-3.6353,9.8623-9.5029,9.8623s-9.4668-3.6348-9.4668-9.8623Z"/>
  <path d="M45.1338,26.1621h2.2676l5.8311,22.1372h.1084l6.7319-22.1372h2.4473l6.7314,22.1372h.1074l5.8311-22.1372h2.2686l-6.8037,25.1968h-2.4473l-6.9111-22.3892-6.9116,22.3892h-2.4121l-6.8389-25.1968Z"/>
  <path d="M71.4302,26.1621h15.6582v1.9795h-13.4629v9.2866h12.3828v1.8721h-12.3828v10.0781h13.8223v1.9805h-16.0176v-25.1968Z"/>
</svg>